<?xml version="1.0" standalone="no"?>
<!DOCTYPE svg PUBLIC "-//W3C//DTD SVG 20010904//EN"
 "http://www.w3.org/TR/2001/REC-SVG-20010904/DTD/svg10.dtd">
<svg version="1.0" xmlns="http://www.w3.org/2000/svg"
 width="1024" height="1024" viewBox="0 0 1024 1024"
 preserveAspectRatio="xMidYMid meet">
<metadata>
Created by potrace 1.16, written by Peter Selinger 2001-2019
</metadata>
<g transform="translate(0.000000,1024.000000) scale(0.100000,-0.100000)"
fill="white" stroke="none">
<path d="M4800 9153 c-277 -22 -648 -95 -929 -185 -275 -87 -654 -262 -915
-422 -576 -356 -1086 -895 -1437 -1521 -359 -642 -530 -1374 -490 -2102 20
-363 67 -636 162 -946 283 -923 886 -1714 1714 -2252 370 -241 772 -426 1150
-530 33 -9 67 -18 77 -21 14 -4 16 14 20 180 1 101 6 187 9 190 3 4 29 1 56
-5 48 -11 51 -14 57 -48 3 -20 6 -106 6 -192 l0 -157 113 -21 c216 -40 359
-53 637 -58 207 -4 317 -1 445 11 148 13 469 61 486 71 3 3 9 199 13 437 4
238 9 434 11 436 2 3 28 -2 57 -10 l53 -15 3 -406 c1 -224 6 -407 10 -407 4 0
48 11 97 25 501 143 932 359 1363 682 522 392 929 877 1217 1448 159 314 255
581 329 915 74 329 101 614 93 963 -9 407 -58 705 -179 1102 -287 938 -1037
1852 -1913 2329 -527 288 -1018 440 -1610 501 -127 13 -575 18 -705 8z m796
-317 c160 -20 398 -69 544 -111 370 -107 821 -319 1129 -532 223 -155 503
-406 684 -613 585 -668 892 -1405 949 -2276 39 -602 -120 -1326 -411 -1879
-274 -519 -628 -932 -1106 -1292 -220 -165 -415 -287 -634 -398 -216 -108
-499 -230 -510 -219 -3 3 -6 81 -6 172 l0 167 54 8 c71 10 111 34 138 83 22
39 23 43 23 445 0 403 0 406 -23 450 -17 33 -35 50 -74 70 l-51 26 43 89 c61
124 55 119 99 93 32 -18 39 -20 47 -8 5 8 37 64 71 124 66 118 162 288 333
590 l108 189 -12 101 c-43 357 -221 1307 -277 1474 -86 258 -239 455 -444 569
-30 17 -158 72 -285 122 -126 51 -276 114 -333 141 l-103 48 29 43 c108 157
162 349 168 598 l5 155 80 3 81 3 -4 172 c-3 167 -4 174 -31 219 -15 26 -38
79 -51 118 -56 165 -197 326 -352 401 -44 21 -87 39 -96 39 -8 0 -28 18 -44
41 -53 77 -183 117 -290 90 -58 -15 -127 -61 -151 -101 -9 -17 -24 -30 -32
-30 -8 0 -53 -18 -99 -41 -151 -73 -303 -250 -353 -411 -11 -34 -33 -82 -49
-107 l-30 -44 0 -174 0 -173 79 0 78 0 6 -162 c8 -237 51 -398 146 -556 41
-67 47 -83 37 -97 -12 -17 -72 -42 -376 -160 -337 -130 -427 -180 -540 -302
-167 -178 -228 -326 -314 -763 -125 -641 -195 -1056 -198 -1180 -2 -59 -17
-29 360 -695 41 -73 142 -246 148 -253 1 -2 17 4 35 13 31 17 33 16 46 -1 24
-32 144 -264 153 -293 l8 -28 -70 -5 c-77 -6 -108 -22 -145 -78 l-23 -33 0
-474 c0 -417 2 -478 16 -506 35 -69 86 -104 182 -127 l52 -12 0 -44 c0 -24 -2
-44 -4 -44 -3 0 -62 33 -133 73 -70 40 -198 107 -284 149 -530 256 -957 576
-1344 1004 -436 483 -758 1169 -869 1849 -37 230 -49 419 -43 669 8 309 45
564 127 871 192 720 691 1467 1305 1955 591 468 1284 743 2055 814 107 9 660
-3 776 -18z m-417 -631 c16 -8 31 -22 35 -30 3 -9 6 -97 6 -196 l0 -180 -97 3
-98 3 -3 178 c-1 114 1 185 8 198 21 38 98 51 149 24z m-284 -159 c9 -44 0
-70 -28 -83 -76 -35 -196 -190 -233 -300 -10 -32 -22 -60 -26 -63 -3 -3 -27
-4 -52 -2 -54 5 -56 11 -27 95 37 105 93 199 161 267 58 58 153 119 187 120 7
0 15 -15 18 -34z m538 2 c131 -70 263 -256 292 -410 l7 -36 -44 -4 c-58 -6
-63 -3 -78 45 -28 98 -114 224 -195 287 -22 17 -48 37 -57 45 -26 21 -22 105
4 105 6 0 37 -14 71 -32z m-323 -502 c91 0 273 2 405 4 l240 5 3 -47 c3 -44 1
-47 -25 -52 -212 -43 -1016 -41 -1223 3 -33 7 -35 10 -32 42 1 19 4 39 6 45 3
9 65 10 233 6 125 -4 302 -6 393 -6z m-365 -370 c124 -45 200 -58 320 -53 110
4 159 10 199 24 11 4 30 6 41 4 17 -1 17 0 5 8 -8 6 -23 8 -32 5 -10 -3 -18
-1 -18 4 0 5 20 13 45 19 24 5 42 6 39 2 -3 -5 5 -9 18 -9 17 0 19 3 9 9 -9 6
4 9 35 9 50 0 161 27 179 43 24 23 28 4 21 -101 -7 -120 -34 -271 -67 -370
-42 -128 -128 -226 -249 -284 -60 -29 -73 -31 -170 -31 -100 0 -108 2 -175 35
-91 46 -164 119 -209 212 -58 118 -106 337 -106 484 l0 65 23 -24 c12 -14 54
-37 92 -51z m245 -876 c25 -7 87 -12 138 -12 79 1 108 7 193 36 l99 34 0 -44
c0 -39 -29 -118 -49 -134 -3 -3 -28 -36 -54 -75 -26 -38 -53 -78 -61 -87 -11
-15 -31 -18 -132 -18 l-119 0 -66 83 c-118 146 -127 163 -122 233 l5 61 62
-33 c33 -18 81 -38 106 -44z m830 -117 c333 -135 354 -144 421 -188 189 -126
290 -294 368 -610 40 -164 171 -855 217 -1144 9 -62 13 -122 9 -149 -9 -61
-85 -205 -392 -740 -21 -37 -26 -41 -45 -31 -21 11 -429 278 -438 286 -3 2 6
23 19 46 12 23 79 151 148 285 111 216 125 248 120 280 -3 20 -18 102 -32 182
-24 132 -26 157 -19 285 5 103 9 131 15 105 4 -19 32 -114 62 -210 29 -96 67
-225 83 -287 l29 -112 -60 -113 c-32 -62 -94 -178 -137 -258 -43 -80 -78 -149
-78 -155 1 -5 49 -41 108 -78 59 -38 117 -75 128 -83 21 -15 26 -8 195 288
l174 303 -1 70 c-2 86 -9 132 -90 560 -136 727 -156 805 -248 969 -49 88 -152
191 -242 243 -64 37 -352 173 -367 173 -3 0 14 -48 39 -107 57 -136 105 -263
99 -263 -5 0 -63 35 -280 167 l-120 74 -30 -34 c-16 -19 -90 -104 -162 -190
l-133 -156 0 -1481 0 -1481 -57 3 -58 3 -1 1476 -1 1476 -162 192 c-152 179
-163 190 -184 180 -24 -13 -83 -49 -260 -159 -65 -40 -119 -71 -121 -69 -2 2
29 85 69 184 40 99 71 181 70 183 -2 2 -11 -1 -22 -7 -10 -6 -82 -40 -160 -75
-246 -111 -357 -203 -445 -371 -69 -134 -102 -249 -163 -580 -31 -165 -67
-356 -81 -425 -49 -243 -64 -336 -70 -441 l-7 -105 173 -310 c94 -170 173
-310 175 -312 5 -5 265 167 265 176 0 4 -4 12 -9 18 -13 13 -249 462 -262 499
-10 28 -4 53 55 236 37 112 82 247 101 299 l35 95 0 -120 c0 -99 -6 -152 -37
-306 l-37 -186 78 -154 c43 -85 110 -214 149 -288 l71 -135 -33 -25 c-53 -41
-411 -281 -419 -281 -4 0 -76 122 -160 270 -271 477 -280 500 -262 633 32 225
211 1164 245 1284 14 48 51 140 82 203 50 102 67 125 148 206 80 80 104 98
195 142 58 28 206 89 330 137 124 47 233 90 243 96 11 6 21 8 24 6 4 -4 -29
-96 -93 -261 -7 -18 -5 -18 25 3 33 24 118 51 159 51 30 0 68 -38 221 -222 68
-82 127 -148 131 -148 4 0 41 39 81 88 170 203 244 282 265 282 51 0 130 -22
161 -46 18 -14 33 -22 33 -18 0 4 -22 62 -50 130 -62 153 -63 160 -12 138 20
-9 120 -50 222 -91z m-86 -939 c143 -41 261 -76 264 -78 2 -3 -2 -28 -9 -56
-12 -47 -15 -50 -38 -45 -15 3 -141 38 -281 78 l-255 72 -3 44 c-5 61 2 73 35
65 16 -4 145 -40 287 -80z m-884 -194 c0 -143 -2 -260 -5 -260 -3 0 -27 22
-55 50 l-50 50 0 151 0 150 -244 -7 -243 -7 -7 53 c-4 29 -6 54 -4 55 4 4 398
21 521 23 l87 2 0 -260z m848 10 c27 -16 32 -26 32 -57 0 -45 -24 -73 -63 -73
-81 0 -103 97 -32 138 26 15 25 15 63 -8z m-1424 -272 c3 -57 11 -213 17 -348
10 -242 35 -481 63 -613 8 -38 10 -65 6 -60 -4 4 -49 87 -99 184 l-91 176 -1
164 c0 90 -4 259 -8 374 -5 116 -6 213 -4 218 2 4 28 7 58 7 l53 0 6 -102z
m1806 40 c1 -171 -23 -716 -32 -738 -18 -46 -180 -352 -184 -348 -2 3 1 20 6
39 13 44 46 248 59 369 11 91 31 531 31 673 l0 67 60 0 60 0 0 -62z m-1718
-1413 c24 -13 68 -29 98 -36 75 -15 121 -44 219 -136 63 -59 83 -83 78 -96 -9
-24 -54 -39 -91 -32 -31 7 -126 64 -126 77 0 3 -29 10 -65 13 l-65 7 -103 -98
c-57 -55 -124 -114 -150 -132 l-46 -33 -25 39 c-13 21 -45 80 -70 130 l-46 91
173 115 c94 63 173 115 173 116 1 0 21 -11 46 -25z m1730 -82 c89 -60 166
-111 172 -115 6 -4 -13 -52 -48 -119 -85 -166 -69 -157 -156 -93 -41 30 -110
88 -152 130 l-77 76 -63 -7 c-52 -6 -70 -13 -100 -41 -65 -58 -153 -68 -182
-20 -9 15 1 29 67 91 103 96 138 119 225 145 41 12 88 30 105 41 18 10 35 19
40 19 4 0 80 -48 169 -107z m186 -569 c21 -15 22 -20 22 -200 l0 -184 -35 0
-35 0 0 200 c0 213 1 217 48 184z m-1812 -108 l34 -34 0 -406 c0 -452 0 -449
-65 -480 -30 -15 -65 -17 -255 -14 l-220 3 -31 32 -32 31 2 418 c1 230 5 422
8 427 6 11 73 40 79 35 2 -3 7 -37 10 -76 l7 -72 57 0 c67 0 70 4 70 108 l0
62 151 0 151 0 34 -34z m1588 -6 l46 -19 0 -267 c0 -249 -1 -266 -17 -259 -10
3 -37 11 -60 18 l-43 11 0 96 c0 168 13 440 21 440 4 0 28 -9 53 -20z m224
-406 c22 -6 23 -10 20 -107 -3 -100 -3 -101 -30 -108 -15 -4 -29 -4 -32 -1 -3
3 -6 54 -6 114 0 114 0 114 48 102z m-1078 -459 l0 -435 -80 0 -80 0 0 435 0
435 80 0 80 0 0 -435z"/>
<path d="M5048 8700 c-27 -28 -30 -36 -25 -73 11 -81 93 -114 155 -62 72 61
33 164 -61 165 -30 0 -46 -7 -69 -30z"/>
<path d="M4573 8625 c-34 -24 -47 -76 -29 -118 17 -42 41 -57 91 -57 51 0 95
44 95 95 0 75 -95 123 -157 80z"/>
<path d="M5536 8615 c-20 -19 -26 -33 -26 -67 1 -46 12 -68 47 -86 66 -36 143
12 143 88 0 56 -36 90 -95 90 -31 0 -49 -7 -69 -25z"/>
<path d="M4264 8479 c-29 -15 -47 -51 -46 -89 3 -96 123 -127 173 -46 24 37
19 90 -9 119 -23 22 -88 31 -118 16z"/>
<path d="M5867 8470 c-50 -39 -45 -132 8 -160 87 -46 186 41 141 125 -30 56
-101 72 -149 35z"/>
<path d="M6226 8343 c-3 -3 -6 -18 -6 -33 0 -30 45 -85 201 -247 55 -56 99
-106 99 -110 0 -5 -9 -19 -19 -32 l-19 -24 -149 137 c-199 182 -189 176 -219
140 -13 -16 -23 -31 -24 -34 0 -8 104 -126 235 -266 99 -105 126 -139 135
-175 13 -49 83 -124 125 -135 24 -6 25 -10 25 -78 0 -134 45 -239 140 -330 78
-75 147 -108 237 -114 99 -6 125 1 121 36 -3 25 -7 27 -65 34 -71 8 -87 15
-128 58 -22 23 -30 40 -30 69 0 46 27 89 61 97 21 5 36 -4 97 -63 40 -38 85
-73 100 -77 38 -9 98 20 115 57 24 50 7 81 -98 183 -54 53 -100 107 -102 119
-6 31 15 79 43 99 13 9 43 16 66 16 79 0 138 -89 132 -198 -3 -45 -2 -47 28
-53 35 -7 33 -11 49 82 8 49 -12 144 -41 194 -30 52 -119 137 -173 164 -63 32
-169 54 -234 48 -51 -4 -59 -2 -80 20 -29 32 -94 62 -132 63 -21 0 -56 23
-135 88 -231 190 -345 275 -355 265z m531 -438 c83 -55 83 -186 0 -242 -37
-26 -109 -31 -152 -11 -39 18 -69 74 -69 130 0 110 129 183 221 123z"/>
<path d="M3822 8318 c-46 -22 -77 -58 -88 -104 -10 -40 -318 -366 -359 -379
-16 -5 -61 -42 -100 -82 l-70 -72 -43 12 c-51 14 -89 -2 -110 -45 -19 -41 -5
-77 61 -145 l59 -62 -182 -198 c-100 -109 -197 -212 -215 -228 -29 -27 -35
-40 -43 -100 -5 -39 -9 -71 -8 -72 0 -1 36 10 78 25 54 19 81 34 92 52 8 14
65 79 127 145 61 66 145 157 187 202 l75 82 40 -45 c38 -43 101 -84 130 -84 8
0 27 10 42 22 25 20 27 25 23 82 l-5 61 64 70 c34 38 63 78 63 88 0 11 66 89
153 181 83 89 168 180 188 201 19 22 51 52 71 67 93 70 91 205 -4 295 -18 17
-46 37 -61 42 -44 17 -118 12 -165 -11z m43 -258 l29 -30 -85 -87 c-46 -49
-115 -121 -153 -161 l-70 -72 -28 27 c-15 15 -28 31 -28 35 0 11 289 318 299
318 4 0 20 -13 36 -30z"/>
<path d="M6293 6998 c-42 -11 -63 -43 -63 -96 0 -90 102 -137 163 -76 33 32
41 57 33 98 -11 58 -71 91 -133 74z"/>
<path d="M3827 6975 c-31 -32 -39 -71 -22 -111 17 -41 51 -64 96 -64 30 0 43
7 69 37 28 32 32 41 27 77 -8 55 -44 86 -101 86 -33 0 -49 -6 -69 -25z"/>
<path d="M3635 6768 c-93 -51 -59 -198 46 -198 31 0 73 26 86 52 21 44 23 59
9 93 -23 53 -93 80 -141 53z"/>
<path d="M6479 6765 c-91 -49 -39 -206 63 -192 47 6 67 22 85 66 38 91 -59
174 -148 126z"/>
<path d="M7495 6773 c-233 -28 -423 -189 -480 -404 -11 -40 -15 -118 -15 -290
0 -208 2 -245 20 -301 37 -121 150 -257 259 -312 109 -56 114 -56 658 -56
l503 0 0 74 0 74 -477 1 c-263 1 -494 4 -513 8 -109 20 -208 102 -261 216 -33
71 -33 74 -37 247 -2 97 0 205 6 243 28 180 155 314 327 346 37 7 227 11 507
11 l448 0 0 75 0 75 -457 -1 c-252 -1 -471 -4 -488 -6z"/>
<path d="M2139 6680 c-46 -28 -114 -67 -151 -87 -42 -24 -68 -44 -68 -55 0 -9
17 -66 39 -127 l38 -110 -34 -48 c-19 -26 -46 -69 -59 -95 l-24 -48 -109 0
-108 0 -22 -72 c-12 -40 -27 -86 -32 -102 -5 -16 -9 -44 -9 -63 0 -37 37 -172
51 -187 4 -5 30 -10 56 -10 26 -1 76 -3 110 -4 l62 -2 39 -72 c21 -40 47 -87
57 -103 l18 -30 -52 -116 c-28 -64 -51 -120 -51 -125 0 -13 266 -176 293 -180
17 -2 43 20 110 96 l88 100 72 0 72 0 84 -101 c46 -55 90 -103 99 -107 16 -6
73 22 244 120 l87 50 -20 51 c-11 29 -32 80 -46 115 l-25 62 63 95 63 95 113
0 112 0 31 99 c36 117 36 122 8 232 l-22 87 -51 6 c-27 3 -81 6 -118 6 -55 0
-69 3 -74 18 -3 9 -28 57 -56 105 l-50 88 40 87 c61 132 77 172 71 178 -13 13
-303 174 -309 172 -4 -2 -46 -40 -94 -85 l-88 -83 -86 1 -86 1 -85 91 c-46 51
-89 95 -95 99 -6 4 -49 -15 -96 -42z m477 -336 c-19 -65 -48 -173 -66 -239
-17 -66 -34 -128 -36 -137 -5 -16 5 -18 105 -18 61 0 111 -2 111 -5 0 -9 -35
-60 -160 -235 -189 -266 -270 -374 -270 -362 0 5 32 104 70 218 39 114 70 211
70 215 0 5 -53 10 -118 11 l-119 3 133 205 c271 420 305 472 310 468 2 -3 -12
-58 -30 -124z"/>
<path d="M3829 6551 c-38 -39 -40 -97 -5 -138 20 -23 32 -28 69 -28 54 0 93
31 103 81 17 93 -99 153 -167 85z"/>
<path d="M6249 6551 c-81 -81 17 -210 120 -157 90 47 53 186 -49 186 -33 0
-48 -6 -71 -29z"/>
<path d="M7928 6513 l-178 -3 0 -420 0 -419 284 -3 284 -3 6 35 c3 19 6 209 6
421 l0 386 -37 7 c-21 3 -72 5 -113 4 -41 -2 -155 -4 -252 -5z m202 -273 c67
-47 89 -158 48 -232 -64 -113 -221 -109 -278 8 -59 119 27 261 151 251 27 -2
60 -13 79 -27z"/>
<path d="M7985 6155 c-75 -74 25 -190 109 -124 57 45 19 149 -54 149 -19 0
-40 -9 -55 -25z"/>
<path d="M7460 6501 c-51 -16 -89 -41 -129 -87 -46 -53 -67 -114 -73 -211 l-4
-63 198 0 198 0 0 185 0 185 -82 -1 c-46 0 -94 -4 -108 -8z"/>
<path d="M7260 5966 c0 -84 28 -160 80 -214 62 -64 91 -75 208 -80 l102 -4 -2
178 -3 179 -192 3 -193 2 0 -64z"/>
<path d="M7202 5048 l3 -83 538 -3 537 -2 0 -195 0 -195 -540 0 -540 0 0 -85
0 -85 275 0 275 0 -2 -172 -3 -173 -273 -3 -273 -2 3 -53 3 -52 115 -1 c63 0
186 -1 273 -2 l157 -2 0 -90 0 -90 350 0 350 0 0 80 0 80 -255 0 -255 0 0 240
0 240 255 0 255 0 0 365 0 365 -625 0 -626 0 3 -82z"/>
<path d="M7830 4850 l0 -30 173 2 172 3 0 25 0 25 -172 3 -173 3 0 -31z"/>
<path d="M2099 4783 c-1 -5 0 -23 1 -42 1 -18 -1 -65 -5 -102 l-7 -69 -182 0
-181 0 3 -245 3 -245 179 0 180 0 0 -62 c0 -35 3 -85 6 -113 l6 -50 42 1 c22
0 125 1 228 2 l187 2 3 108 3 107 180 0 c171 0 180 1 187 20 3 11 6 122 7 248
l1 227 -184 0 c-214 0 -196 -12 -196 133 l0 87 -230 0 c-126 0 -230 -3 -231
-7z m247 -187 c70 -34 70 -34 107 -115 l37 -81 135 0 135 0 0 -76 0 -77 -158
5 -159 4 -11 -125 c-7 -68 -14 -126 -16 -128 -2 -2 -48 16 -102 40 l-99 43
-55 82 -55 81 -102 1 -103 0 0 75 0 75 143 0 142 0 30 -43 30 -42 7 60 c4 33
10 104 14 158 3 53 7 97 8 97 2 0 34 -15 72 -34z"/>
<path d="M7209 4318 c0 -2 -1 -20 -3 -40 l-3 -38 219 0 218 0 0 40 0 40 -215
0 c-118 0 -215 -1 -216 -2z"/>
<path d="M8050 4151 c0 -50 4 -92 9 -95 5 -4 95 -3 200 1 l191 6 0 89 0 88
-200 0 -200 0 0 -89z"/>
<path d="M7210 3845 l0 -35 135 0 135 0 0 35 0 35 -135 0 -135 0 0 -35z"/>
<path d="M2370 3660 c0 -5 29 -82 65 -169 36 -88 65 -164 65 -170 0 -14 -152
-83 -161 -74 -4 5 -38 75 -76 157 -37 82 -72 149 -78 150 -15 2 -71 -119 -89
-191 -40 -156 3 -297 130 -433 72 -76 160 -131 259 -163 39 -12 73 -26 77 -32
4 -5 8 -25 8 -42 0 -29 3 -33 26 -33 38 0 61 -15 144 -94 41 -39 89 -77 107
-85 20 -8 64 -53 121 -124 142 -178 182 -219 198 -206 11 9 -7 52 -103 240
l-116 228 -49 17 c-54 18 -171 92 -163 103 5 9 115 24 163 22 l32 -2 0 53 c0
61 -23 165 -46 209 l-15 31 -28 -44 c-57 -90 -129 -123 -253 -116 -102 5 -177
37 -242 101 -37 37 -86 112 -86 131 0 3 16 -2 35 -10 79 -33 194 -9 268 57 25
21 48 39 51 39 9 0 -32 -79 -60 -116 -13 -17 -24 -34 -24 -37 0 -12 84 -29
115 -23 40 8 77 47 107 111 33 71 33 228 1 297 -27 59 -94 132 -151 165 -75
44 -232 80 -232 53z"/>
<path d="M2916 3569 c-21 -22 -36 -45 -34 -51 4 -11 313 -205 390 -244 26 -13
57 -24 69 -24 20 0 21 4 15 42 -10 64 -39 100 -122 158 -94 65 -254 160 -270
160 -6 0 -28 -18 -48 -41z"/>
<path d="M7758 3457 c-40 -46 -190 -232 -214 -265 -5 -7 -204 129 -204 139 0
6 19 39 43 73 64 91 62 87 25 79 -53 -10 -169 -53 -215 -80 -59 -34 -128 -114
-148 -171 -35 -102 -30 -244 15 -392 15 -49 17 -68 8 -84 -6 -12 -79 -127
-163 -256 -197 -305 -209 -328 -202 -400 3 -31 12 -71 21 -89 15 -27 22 -32
49 -29 l32 3 -3 85 -3 85 158 210 c88 116 189 252 225 304 l67 94 -25 48 c-29
58 -30 67 -4 94 19 21 19 21 -6 85 -36 87 -30 142 22 217 21 31 44 58 49 60 6
2 18 -23 27 -55 31 -106 101 -174 209 -203 45 -12 47 -12 88 21 23 19 63 59
88 90 l46 55 -6 -63 c-12 -119 -69 -210 -153 -249 -47 -21 -66 -24 -139 -21
-47 2 -85 2 -85 1 0 -1 10 -11 22 -23 l22 -20 -54 -77 c-124 -179 -322 -479
-341 -516 -14 -27 -17 -43 -10 -50 15 -15 19 -10 246 243 231 258 270 295 316
305 108 23 248 138 295 239 43 94 57 187 44 290 -11 87 -63 270 -79 281 -5 2
-33 -23 -63 -58z"/>
<path d="M3073 3159 c-46 -23 -83 -45 -83 -50 0 -4 9 -13 20 -19 29 -15 69
-90 76 -141 4 -27 0 -68 -10 -105 -20 -76 -20 -74 0 -74 18 0 17 -9 -14 -87
l-21 -52 72 -113 c40 -62 108 -165 152 -228 l80 -115 0 -82 c0 -82 0 -82 28
-89 33 -7 40 -2 56 45 29 89 18 121 -138 394 -56 98 -104 191 -107 206 -11 53
13 108 60 140 75 52 96 84 96 150 0 64 -22 160 -47 201 -21 36 -63 60 -105 60
-19 0 -68 -18 -115 -41z"/>
<path d="M4002 2098 l3 -223 143 -3 142 -3 0 226 0 225 -145 0 -145 0 2 -222z"/>
</g>
</svg>
